<svg width="16" height="16" viewBox="0 0 16 16" fill="none" xmlns="http://www.w3.org/2000/svg">
<g clip-path="url(#clip0_747_1159)">
<path d="M4.76996 1.7684C4.81031 1.72892 4.85804 1.69779 4.91042 1.67677C4.96281 1.65575 5.01883 1.64527 5.07527 1.64591L11.0885 1.72227C11.2024 1.72373 11.3111 1.77037 11.3906 1.85192C11.4701 1.93348 11.514 2.04327 11.5125 2.15716C11.5051 2.74026 11.2057 3.16171 10.9406 3.42018C10.8317 3.52632 10.7238 3.61 10.6343 3.67204L10.5859 7.47924C10.8359 7.63449 11.072 7.81085 11.2918 8.0064C11.7411 8.41062 12.2838 9.06328 12.2732 9.89907C12.2718 10.013 12.2251 10.1216 12.1436 10.2011C12.062 10.2806 11.9522 10.3245 11.8383 10.323L8.40226 10.28L8.35317 14.1455C8.35016 14.3824 8.14427 15.4314 7.90738 15.4284C7.67049 15.4254 7.4907 14.3709 7.49431 14.1346L7.54339 10.2691L4.10733 10.2249C3.99344 10.2234 3.8848 10.1768 3.80529 10.0952C3.72578 10.0137 3.68192 9.90388 3.68335 9.79C3.69396 8.95421 4.25247 8.31492 4.71247 7.92285C4.93719 7.73295 5.17775 7.56264 5.43153 7.41379L5.48047 3.60721C5.37358 3.52856 5.27293 3.44178 5.17941 3.34763C4.92154 3.08313 4.63296 2.65421 4.64038 2.06989C4.64197 1.95621 4.68857 1.84778 4.76996 1.7684Z" fill="black"/>
</g>
<defs>
<clipPath id="clip0_747_1159">
<rect width="16" height="16" fill="white"/>
</clipPath>
</defs>
</svg>
