<svg width="16" height="16" viewBox="0 0 16 16" fill="none" xmlns="http://www.w3.org/2000/svg">
<path d="M9.31789 2C9.37433 1.9999 9.43024 2.01093 9.48242 2.03245C9.5346 2.05397 9.58203 2.08556 9.62199 2.12542L13.8742 6.37779C13.9548 6.45834 14 6.56758 14 6.68147C14 6.79537 13.9548 6.9046 13.8742 6.98515C13.4619 7.39751 12.9534 7.49028 12.5831 7.49028C12.4311 7.49028 12.2953 7.47482 12.1879 7.45678L9.49571 10.1491C9.56628 10.4347 9.61226 10.7259 9.63316 11.0193C9.67267 11.6224 9.60567 12.4686 9.01465 13.0596C8.9341 13.1401 8.82487 13.1854 8.71098 13.1854C8.59708 13.1854 8.48785 13.1401 8.40731 13.0596L5.97708 10.6302L3.24361 13.3637C3.0761 13.5312 2.19644 14.1386 2.02893 13.9711C1.86142 13.8036 2.46876 12.923 2.63627 12.7564L5.36974 10.0228L2.94037 7.59251C2.85985 7.51196 2.81462 7.40273 2.81462 7.28883C2.81462 7.17494 2.85985 7.0657 2.94037 6.98515C3.53139 6.39412 4.37755 6.32625 4.98059 6.36663C5.27405 6.38752 5.56519 6.43351 5.8508 6.50408L8.54304 3.81263C8.5214 3.6817 8.50992 3.5493 8.50867 3.4166C8.50867 3.0472 8.60145 2.53863 9.01465 2.12542C9.09515 2.04513 9.20419 2.00002 9.31789 2ZM9.42269 3.81263V3.81435C9.4475 3.88992 9.45084 3.97089 9.43233 4.04825C9.41383 4.12561 9.37421 4.19631 9.31789 4.25247L6.28118 7.2884C6.22476 7.34459 6.15383 7.38398 6.07631 7.40218C5.9988 7.42039 5.91775 7.41669 5.84221 7.39149H5.84049L5.82847 7.38806C5.74667 7.36384 5.66416 7.34207 5.58106 7.32277C5.36491 7.27262 5.1452 7.23931 4.9239 7.22311C4.56138 7.19906 4.20574 7.22999 3.91453 7.35197L8.64784 12.0846C8.76896 11.7925 8.79989 11.4377 8.77584 11.0752C8.75344 10.7683 8.69815 10.4647 8.6109 10.1697L8.60746 10.1585C8.5821 10.0829 8.57831 10.0008 8.59651 9.92311C8.61472 9.84542 8.65421 9.77434 8.71055 9.71784L11.7481 6.68104C11.8066 6.62219 11.8809 6.58154 11.962 6.56401C12.0431 6.54648 12.1275 6.55282 12.2051 6.58225L12.2876 6.60115C12.3623 6.61576 12.4663 6.63036 12.5831 6.63036C12.6816 6.63151 12.7798 6.62005 12.8778 6.596L9.40294 3.12194C9.37888 3.22045 9.36743 3.31867 9.36857 3.4166C9.3692 3.55007 9.3871 3.6829 9.42184 3.81177L9.42269 3.81263Z" fill="black"/>
</svg>
