<svg width="235" height="19" viewBox="0 0 235 19" fill="none" xmlns="http://www.w3.org/2000/svg">
<path d="M8.62087 9.384C9.22887 9.48 9.78087 9.728 10.2769 10.128C10.7889 10.528 11.1889 11.024 11.4769 11.616C11.7809 12.208 11.9329 12.84 11.9329 13.512C11.9329 14.36 11.7169 15.128 11.2849 15.816C10.8529 16.488 10.2209 17.024 9.38887 17.424C8.57287 17.808 7.60487 18 6.48487 18H0.244874V1.272H6.24487C7.38087 1.272 8.34887 1.464 9.14887 1.848C9.94887 2.216 10.5489 2.72 10.9489 3.36C11.3489 4 11.5489 4.72 11.5489 5.52C11.5489 6.512 11.2769 7.336 10.7329 7.992C10.2049 8.632 9.50087 9.096 8.62087 9.384ZM2.42887 8.496H6.10087C7.12487 8.496 7.91687 8.256 8.47687 7.776C9.03687 7.296 9.31687 6.632 9.31687 5.784C9.31687 4.936 9.03687 4.272 8.47687 3.792C7.91687 3.312 7.10887 3.072 6.05287 3.072H2.42887V8.496ZM6.29287 16.2C7.38087 16.2 8.22887 15.944 8.83687 15.432C9.44487 14.92 9.74887 14.208 9.74887 13.296C9.74887 12.368 9.42887 11.64 8.78887 11.112C8.14887 10.568 7.29287 10.296 6.22087 10.296H2.42887V16.2H6.29287ZM17.2976 6.984C17.6816 6.232 18.2256 5.648 18.9296 5.232C19.6496 4.816 20.5216 4.608 21.5456 4.608V6.864H20.9696C18.5216 6.864 17.2976 8.192 17.2976 10.848V18H15.1136V4.848H17.2976V6.984ZM23.4007 11.376C23.4007 10.032 23.6727 8.856 24.2167 7.848C24.7607 6.824 25.5047 6.032 26.4487 5.472C27.4087 4.912 28.4727 4.632 29.6407 4.632C30.7927 4.632 31.7927 4.88 32.6407 5.376C33.4887 5.872 34.1207 6.496 34.5367 7.248V4.848H36.7447V18H34.5367V15.552C34.1047 16.32 33.4567 16.96 32.5927 17.472C31.7447 17.968 30.7527 18.216 29.6167 18.216C28.4487 18.216 27.3927 17.928 26.4487 17.352C25.5047 16.776 24.7607 15.968 24.2167 14.928C23.6727 13.888 23.4007 12.704 23.4007 11.376ZM34.5367 11.4C34.5367 10.408 34.3367 9.544 33.9367 8.808C33.5367 8.072 32.9927 7.512 32.3047 7.128C31.6327 6.728 30.8887 6.528 30.0727 6.528C29.2567 6.528 28.5127 6.72 27.8407 7.104C27.1687 7.488 26.6327 8.048 26.2327 8.784C25.8327 9.52 25.6327 10.384 25.6327 11.376C25.6327 12.384 25.8327 13.264 26.2327 14.016C26.6327 14.752 27.1687 15.32 27.8407 15.72C28.5127 16.104 29.2567 16.296 30.0727 16.296C30.8887 16.296 31.6327 16.104 32.3047 15.72C32.9927 15.32 33.5367 14.752 33.9367 14.016C34.3367 13.264 34.5367 12.392 34.5367 11.4ZM46.9935 4.608C48.5935 4.608 49.8895 5.096 50.8815 6.072C51.8735 7.032 52.3695 8.424 52.3695 10.248V18H50.2095V10.56C50.2095 9.248 49.8815 8.248 49.2255 7.56C48.5695 6.856 47.6735 6.504 46.5375 6.504C45.3855 6.504 44.4655 6.864 43.7775 7.584C43.1055 8.304 42.7695 9.352 42.7695 10.728V18H40.5855V4.848H42.7695V6.72C43.2015 6.048 43.7855 5.528 44.5215 5.16C45.2735 4.792 46.0975 4.608 46.9935 4.608ZM55.2711 11.376C55.2711 10.032 55.5431 8.856 56.0871 7.848C56.6311 6.824 57.3751 6.032 58.3191 5.472C59.2791 4.912 60.3511 4.632 61.5351 4.632C62.5591 4.632 63.5111 4.872 64.3911 5.352C65.2711 5.816 65.9431 6.432 66.4071 7.2V0.24H68.6151V18H66.4071V15.528C65.9751 16.312 65.3351 16.96 64.4871 17.472C63.6391 17.968 62.6471 18.216 61.5111 18.216C60.3431 18.216 59.2791 17.928 58.3191 17.352C57.3751 16.776 56.6311 15.968 56.0871 14.928C55.5431 13.888 55.2711 12.704 55.2711 11.376ZM66.4071 11.4C66.4071 10.408 66.2071 9.544 65.8071 8.808C65.4071 8.072 64.8631 7.512 64.1751 7.128C63.5031 6.728 62.7591 6.528 61.9431 6.528C61.1271 6.528 60.3831 6.72 59.7111 7.104C59.0391 7.488 58.5031 8.048 58.1031 8.784C57.7031 9.52 57.5031 10.384 57.5031 11.376C57.5031 12.384 57.7031 13.264 58.1031 14.016C58.5031 14.752 59.0391 15.32 59.7111 15.72C60.3831 16.104 61.1271 16.296 61.9431 16.296C62.7591 16.296 63.5031 16.104 64.1751 15.72C64.8631 15.32 65.4071 14.752 65.8071 14.016C66.2071 13.264 66.4071 12.392 66.4071 11.4ZM92.1562 18H89.9723L81.1883 4.68V18H79.0043V1.248H81.1883L89.9723 14.544V1.248H92.1562V18ZM108.029 10.92C108.029 11.336 108.005 11.776 107.957 12.24H97.4453C97.5253 13.536 97.9653 14.552 98.7653 15.288C99.5813 16.008 100.565 16.368 101.717 16.368C102.661 16.368 103.445 16.152 104.069 15.72C104.709 15.272 105.157 14.68 105.413 13.944H107.765C107.413 15.208 106.709 16.24 105.653 17.04C104.597 17.824 103.285 18.216 101.717 18.216C100.469 18.216 99.3493 17.936 98.3573 17.376C97.3813 16.816 96.6133 16.024 96.0533 15C95.4933 13.96 95.2133 12.76 95.2133 11.4C95.2133 10.04 95.4853 8.848 96.0293 7.824C96.5733 6.8 97.3333 6.016 98.3093 5.472C99.3013 4.912 100.437 4.632 101.717 4.632C102.965 4.632 104.069 4.904 105.029 5.448C105.989 5.992 106.725 6.744 107.237 7.704C107.765 8.648 108.029 9.72 108.029 10.92ZM105.773 10.464C105.773 9.632 105.589 8.92 105.221 8.328C104.853 7.72 104.349 7.264 103.709 6.96C103.085 6.64 102.389 6.48 101.621 6.48C100.517 6.48 99.5733 6.832 98.7893 7.536C98.0213 8.24 97.5813 9.216 97.4693 10.464H105.773ZM113.246 6.984C113.63 6.232 114.174 5.648 114.878 5.232C115.598 4.816 116.47 4.608 117.494 4.608V6.864H116.918C114.47 6.864 113.246 8.192 113.246 10.848V18H111.062V4.848H113.246V6.984ZM125.061 15.984L129.141 4.848H131.469L126.309 18H123.765L118.605 4.848H120.957L125.061 15.984ZM145.768 10.92C145.768 11.336 145.744 11.776 145.696 12.24H135.184C135.264 13.536 135.704 14.552 136.504 15.288C137.32 16.008 138.304 16.368 139.456 16.368C140.4 16.368 141.184 16.152 141.808 15.72C142.448 15.272 142.896 14.68 143.152 13.944H145.504C145.152 15.208 144.448 16.24 143.392 17.04C142.336 17.824 141.024 18.216 139.456 18.216C138.208 18.216 137.088 17.936 136.096 17.376C135.12 16.816 134.352 16.024 133.792 15C133.232 13.96 132.952 12.76 132.952 11.4C132.952 10.04 133.224 8.848 133.768 7.824C134.312 6.8 135.072 6.016 136.048 5.472C137.04 4.912 138.176 4.632 139.456 4.632C140.704 4.632 141.808 4.904 142.768 5.448C143.728 5.992 144.464 6.744 144.976 7.704C145.504 8.648 145.768 9.72 145.768 10.92ZM143.512 10.464C143.512 9.632 143.328 8.92 142.96 8.328C142.592 7.72 142.088 7.264 141.448 6.96C140.824 6.64 140.128 6.48 139.36 6.48C138.256 6.48 137.312 6.832 136.528 7.536C135.76 8.24 135.32 9.216 135.208 10.464H143.512ZM154.534 9.624C154.534 7.992 154.902 6.528 155.638 5.232C156.374 3.92 157.374 2.896 158.638 2.16C159.918 1.424 161.334 1.056 162.886 1.056C164.71 1.056 166.302 1.496 167.662 2.376C169.022 3.256 170.014 4.504 170.638 6.12H168.022C167.558 5.112 166.886 4.336 166.006 3.792C165.142 3.248 164.102 2.976 162.886 2.976C161.718 2.976 160.67 3.248 159.742 3.792C158.814 4.336 158.086 5.112 157.558 6.12C157.03 7.112 156.766 8.28 156.766 9.624C156.766 10.952 157.03 12.12 157.558 13.128C158.086 14.12 158.814 14.888 159.742 15.432C160.67 15.976 161.718 16.248 162.886 16.248C164.102 16.248 165.142 15.984 166.006 15.456C166.886 14.912 167.558 14.136 168.022 13.128H170.638C170.014 14.728 169.022 15.968 167.662 16.848C166.302 17.712 164.71 18.144 162.886 18.144C161.334 18.144 159.918 17.784 158.638 17.064C157.374 16.328 156.374 15.312 155.638 14.016C154.902 12.72 154.534 11.256 154.534 9.624ZM186.039 10.92C186.039 11.336 186.015 11.776 185.967 12.24H175.455C175.535 13.536 175.975 14.552 176.775 15.288C177.591 16.008 178.575 16.368 179.727 16.368C180.671 16.368 181.455 16.152 182.079 15.72C182.719 15.272 183.167 14.68 183.423 13.944H185.775C185.423 15.208 184.719 16.24 183.663 17.04C182.607 17.824 181.295 18.216 179.727 18.216C178.479 18.216 177.359 17.936 176.367 17.376C175.391 16.816 174.623 16.024 174.063 15C173.503 13.96 173.223 12.76 173.223 11.4C173.223 10.04 173.495 8.848 174.039 7.824C174.583 6.8 175.343 6.016 176.319 5.472C177.311 4.912 178.447 4.632 179.727 4.632C180.975 4.632 182.079 4.904 183.039 5.448C183.999 5.992 184.735 6.744 185.247 7.704C185.775 8.648 186.039 9.72 186.039 10.92ZM183.783 10.464C183.783 9.632 183.599 8.92 183.231 8.328C182.863 7.72 182.359 7.264 181.719 6.96C181.095 6.64 180.399 6.48 179.631 6.48C178.527 6.48 177.583 6.832 176.799 7.536C176.031 8.24 175.591 9.216 175.479 10.464H183.783ZM195.479 4.608C197.079 4.608 198.375 5.096 199.367 6.072C200.359 7.032 200.855 8.424 200.855 10.248V18H198.695V10.56C198.695 9.248 198.367 8.248 197.711 7.56C197.055 6.856 196.159 6.504 195.023 6.504C193.871 6.504 192.951 6.864 192.263 7.584C191.591 8.304 191.255 9.352 191.255 10.728V18H189.071V4.848H191.255V6.72C191.687 6.048 192.271 5.528 193.007 5.16C193.759 4.792 194.583 4.608 195.479 4.608ZM207.237 6.648V14.4C207.237 15.04 207.373 15.496 207.645 15.768C207.917 16.024 208.389 16.152 209.061 16.152H210.669V18H208.701C207.485 18 206.573 17.72 205.965 17.16C205.357 16.6 205.053 15.68 205.053 14.4V6.648H203.349V4.848H205.053V1.536H207.237V4.848H210.669V6.648H207.237ZM225.465 10.92C225.465 11.336 225.441 11.776 225.393 12.24H214.881C214.961 13.536 215.401 14.552 216.201 15.288C217.017 16.008 218.001 16.368 219.153 16.368C220.097 16.368 220.881 16.152 221.505 15.72C222.145 15.272 222.593 14.68 222.849 13.944H225.201C224.849 15.208 224.145 16.24 223.089 17.04C222.033 17.824 220.721 18.216 219.153 18.216C217.905 18.216 216.785 17.936 215.793 17.376C214.817 16.816 214.049 16.024 213.489 15C212.929 13.96 212.649 12.76 212.649 11.4C212.649 10.04 212.921 8.848 213.465 7.824C214.009 6.8 214.769 6.016 215.745 5.472C216.737 4.912 217.873 4.632 219.153 4.632C220.401 4.632 221.505 4.904 222.465 5.448C223.425 5.992 224.161 6.744 224.673 7.704C225.201 8.648 225.465 9.72 225.465 10.92ZM223.209 10.464C223.209 9.632 223.025 8.92 222.657 8.328C222.289 7.72 221.785 7.264 221.145 6.96C220.521 6.64 219.825 6.48 219.057 6.48C217.953 6.48 217.009 6.832 216.225 7.536C215.457 8.24 215.017 9.216 214.905 10.464H223.209ZM230.682 6.984C231.066 6.232 231.61 5.648 232.314 5.232C233.034 4.816 233.906 4.608 234.93 4.608V6.864H234.354C231.906 6.864 230.682 8.192 230.682 10.848V18H228.498V4.848H230.682V6.984Z" fill="#9E9E9E"/>
</svg>
