<svg width="344" height="32" viewBox="0 0 344 32" fill="none" xmlns="http://www.w3.org/2000/svg">
<g clip-path="url(#clip0_900_3529)">
<path d="M94.9472 19.5566L97.6659 21.3602C96.7835 22.6536 94.6731 24.8726 91.0244 24.8726C86.4934 24.8726 83.1191 21.384 83.1191 16.9461C83.1191 12.2236 86.5292 9.01984 90.6429 9.01984C94.7803 9.01984 96.8073 12.2947 97.4632 14.0627L97.821 14.9646L87.1612 19.3549C87.972 20.945 89.2361 21.7518 91.0244 21.7518C92.813 21.7518 94.053 20.8737 94.9472 19.5566ZM86.5889 16.6972L93.7073 13.7543C93.3138 12.7696 92.1454 12.0696 90.7501 12.0696C88.9736 12.0696 86.5055 13.6358 86.5889 16.6972Z" fill="#9E9E9E"/>
<path d="M77.98 0.939209H81.4138V24.1487H77.98V0.939209Z" fill="#9E9E9E"/>
<path d="M72.5668 9.63676H75.8816V23.7333C75.8816 29.583 72.4118 31.9918 68.31 31.9918C64.4469 31.9918 62.1219 29.4051 61.2513 27.3049L64.2918 26.047C64.8402 27.3404 66.1638 28.8712 68.31 28.8712C70.9451 28.8712 72.5668 27.2455 72.5668 24.208V23.0689H72.4476C71.6605 24.0181 70.1582 24.8724 68.2505 24.8724C64.2679 24.8724 60.6191 21.4194 60.6191 16.9699C60.6191 12.4964 64.2679 9.008 68.2505 9.008C70.1463 9.008 71.6605 9.85047 72.4476 10.776H72.5668V9.63676ZM72.8051 16.9699C72.8051 14.1695 70.9332 12.1286 68.5485 12.1286C66.1398 12.1286 64.1129 14.1695 64.1129 16.9699C64.1129 19.7345 66.1398 21.7398 68.5485 21.7398C70.9334 21.7518 72.8053 19.7345 72.8053 16.9699" fill="#9E9E9E"/>
<path d="M41.7678 16.9104C41.7678 21.4788 38.1908 24.8367 33.8028 24.8367C29.4151 24.8367 25.8379 21.467 25.8379 16.9104C25.8379 12.3184 29.4151 8.97235 33.8028 8.97235C38.1908 8.97235 41.7678 12.3184 41.7678 16.9104ZM38.2861 16.9104C38.2861 14.0628 36.2113 12.1047 33.8028 12.1047C31.3944 12.1047 29.3195 14.0628 29.3195 16.9104C29.3195 19.7344 31.3944 21.7162 33.8028 21.7162C36.2115 21.7162 38.2861 19.7344 38.2861 16.9104Z" fill="#9E9E9E"/>
<path d="M59.1647 16.9461C59.1647 21.5145 55.5876 24.8724 51.1998 24.8724C46.8118 24.8724 43.2349 21.5143 43.2349 16.9461C43.2349 12.3541 46.8118 9.01984 51.1998 9.01984C55.5876 9.01984 59.1647 12.3423 59.1647 16.9461ZM55.671 16.9461C55.671 14.0985 53.5964 12.1404 51.1877 12.1404C48.7791 12.1404 46.7045 14.0985 46.7045 16.9461C46.7045 19.7701 48.7793 21.7518 51.1877 21.7518C53.6082 21.7518 55.671 19.7583 55.671 16.9461Z" fill="#9E9E9E"/>
<path d="M12.7458 21.3958C7.74978 21.3958 3.83899 17.3851 3.83899 12.4133C3.83899 7.4417 7.74978 3.43104 12.7458 3.43104C15.4406 3.43104 17.4079 4.48704 18.8626 5.8398L21.2593 3.45485C19.2324 1.52075 16.5257 0.0491333 12.7458 0.0491333C5.90176 0.0493238 0.142578 5.60266 0.142578 12.4133C0.142578 19.224 5.90176 24.7775 12.7458 24.7775C16.4422 24.7775 19.2324 23.5672 21.4144 21.3128C23.6559 19.0819 24.3475 15.9493 24.3475 13.4101C24.3475 12.615 24.2521 11.7964 24.1448 11.1912H12.7458V14.4899H20.8658C20.6273 16.5547 19.9716 17.9667 19.0057 18.9276C17.8372 20.1025 15.9892 21.3958 12.7458 21.3958Z" fill="#9E9E9E"/>
</g>
<path d="M116.621 15.384C117.229 15.48 117.781 15.728 118.277 16.128C118.789 16.528 119.189 17.024 119.477 17.616C119.781 18.208 119.933 18.84 119.933 19.512C119.933 20.36 119.717 21.128 119.285 21.816C118.853 22.488 118.221 23.024 117.389 23.424C116.573 23.808 115.605 24 114.485 24H108.245V7.272H114.245C115.381 7.272 116.349 7.464 117.149 7.848C117.949 8.216 118.549 8.72 118.949 9.36C119.349 10 119.549 10.72 119.549 11.52C119.549 12.512 119.277 13.336 118.733 13.992C118.205 14.632 117.501 15.096 116.621 15.384ZM110.429 14.496H114.101C115.125 14.496 115.917 14.256 116.477 13.776C117.037 13.296 117.317 12.632 117.317 11.784C117.317 10.936 117.037 10.272 116.477 9.792C115.917 9.312 115.109 9.072 114.053 9.072H110.429V14.496ZM114.293 22.2C115.381 22.2 116.229 21.944 116.837 21.432C117.445 20.92 117.749 20.208 117.749 19.296C117.749 18.368 117.429 17.64 116.789 17.112C116.149 16.568 115.293 16.296 114.221 16.296H110.429V22.2H114.293ZM125.298 12.984C125.682 12.232 126.226 11.648 126.93 11.232C127.65 10.816 128.522 10.608 129.546 10.608V12.864H128.97C126.522 12.864 125.298 14.192 125.298 16.848V24H123.114V10.848H125.298V12.984ZM131.401 17.376C131.401 16.032 131.673 14.856 132.217 13.848C132.761 12.824 133.505 12.032 134.449 11.472C135.409 10.912 136.473 10.632 137.641 10.632C138.793 10.632 139.793 10.88 140.641 11.376C141.489 11.872 142.121 12.496 142.537 13.248V10.848H144.745V24H142.537V21.552C142.105 22.32 141.457 22.96 140.593 23.472C139.745 23.968 138.753 24.216 137.617 24.216C136.449 24.216 135.393 23.928 134.449 23.352C133.505 22.776 132.761 21.968 132.217 20.928C131.673 19.888 131.401 18.704 131.401 17.376ZM142.537 17.4C142.537 16.408 142.337 15.544 141.937 14.808C141.537 14.072 140.993 13.512 140.305 13.128C139.633 12.728 138.889 12.528 138.073 12.528C137.257 12.528 136.513 12.72 135.841 13.104C135.169 13.488 134.633 14.048 134.233 14.784C133.833 15.52 133.633 16.384 133.633 17.376C133.633 18.384 133.833 19.264 134.233 20.016C134.633 20.752 135.169 21.32 135.841 21.72C136.513 22.104 137.257 22.296 138.073 22.296C138.889 22.296 139.633 22.104 140.305 21.72C140.993 21.32 141.537 20.752 141.937 20.016C142.337 19.264 142.537 18.392 142.537 17.4ZM154.993 10.608C156.593 10.608 157.89 11.096 158.882 12.072C159.873 13.032 160.369 14.424 160.369 16.248V24H158.209V16.56C158.209 15.248 157.881 14.248 157.225 13.56C156.569 12.856 155.673 12.504 154.537 12.504C153.385 12.504 152.465 12.864 151.777 13.584C151.105 14.304 150.769 15.352 150.769 16.728V24H148.585V10.848H150.769V12.72C151.201 12.048 151.785 11.528 152.521 11.16C153.273 10.792 154.097 10.608 154.993 10.608ZM163.271 17.376C163.271 16.032 163.543 14.856 164.087 13.848C164.631 12.824 165.375 12.032 166.319 11.472C167.279 10.912 168.351 10.632 169.535 10.632C170.559 10.632 171.511 10.872 172.391 11.352C173.271 11.816 173.943 12.432 174.407 13.2V6.24H176.615V24H174.407V21.528C173.975 22.312 173.335 22.96 172.487 23.472C171.639 23.968 170.647 24.216 169.511 24.216C168.343 24.216 167.279 23.928 166.319 23.352C165.375 22.776 164.631 21.968 164.087 20.928C163.543 19.888 163.271 18.704 163.271 17.376ZM174.407 17.4C174.407 16.408 174.207 15.544 173.807 14.808C173.407 14.072 172.863 13.512 172.175 13.128C171.503 12.728 170.759 12.528 169.943 12.528C169.127 12.528 168.383 12.72 167.711 13.104C167.039 13.488 166.503 14.048 166.103 14.784C165.703 15.52 165.503 16.384 165.503 17.376C165.503 18.384 165.703 19.264 166.103 20.016C166.503 20.752 167.039 21.32 167.711 21.72C168.383 22.104 169.127 22.296 169.943 22.296C170.759 22.296 171.503 22.104 172.175 21.72C172.863 21.32 173.407 20.752 173.807 20.016C174.207 19.264 174.407 18.392 174.407 17.4ZM200.156 24H197.972L189.188 10.68V24H187.004V7.248H189.188L197.972 20.544V7.248H200.156V24ZM216.029 16.92C216.029 17.336 216.005 17.776 215.957 18.24H205.445C205.525 19.536 205.965 20.552 206.765 21.288C207.581 22.008 208.565 22.368 209.717 22.368C210.661 22.368 211.445 22.152 212.069 21.72C212.709 21.272 213.157 20.68 213.413 19.944H215.765C215.413 21.208 214.709 22.24 213.653 23.04C212.597 23.824 211.285 24.216 209.717 24.216C208.469 24.216 207.349 23.936 206.357 23.376C205.381 22.816 204.613 22.024 204.053 21C203.493 19.96 203.213 18.76 203.213 17.4C203.213 16.04 203.485 14.848 204.029 13.824C204.573 12.8 205.333 12.016 206.309 11.472C207.301 10.912 208.437 10.632 209.717 10.632C210.965 10.632 212.069 10.904 213.029 11.448C213.989 11.992 214.725 12.744 215.237 13.704C215.765 14.648 216.029 15.72 216.029 16.92ZM213.773 16.464C213.773 15.632 213.589 14.92 213.221 14.328C212.853 13.72 212.349 13.264 211.709 12.96C211.085 12.64 210.389 12.48 209.621 12.48C208.517 12.48 207.573 12.832 206.789 13.536C206.021 14.24 205.581 15.216 205.469 16.464H213.773ZM221.246 12.984C221.63 12.232 222.174 11.648 222.878 11.232C223.598 10.816 224.47 10.608 225.494 10.608V12.864H224.918C222.47 12.864 221.246 14.192 221.246 16.848V24H219.062V10.848H221.246V12.984ZM233.061 21.984L237.141 10.848H239.469L234.309 24H231.765L226.605 10.848H228.957L233.061 21.984ZM253.768 16.92C253.768 17.336 253.744 17.776 253.696 18.24H243.184C243.264 19.536 243.704 20.552 244.504 21.288C245.32 22.008 246.304 22.368 247.456 22.368C248.4 22.368 249.184 22.152 249.808 21.72C250.448 21.272 250.896 20.68 251.152 19.944H253.504C253.152 21.208 252.448 22.24 251.392 23.04C250.336 23.824 249.024 24.216 247.456 24.216C246.208 24.216 245.088 23.936 244.096 23.376C243.12 22.816 242.352 22.024 241.792 21C241.232 19.96 240.952 18.76 240.952 17.4C240.952 16.04 241.224 14.848 241.768 13.824C242.312 12.8 243.072 12.016 244.048 11.472C245.04 10.912 246.176 10.632 247.456 10.632C248.704 10.632 249.808 10.904 250.768 11.448C251.728 11.992 252.464 12.744 252.976 13.704C253.504 14.648 253.768 15.72 253.768 16.92ZM251.512 16.464C251.512 15.632 251.328 14.92 250.96 14.328C250.592 13.72 250.088 13.264 249.448 12.96C248.824 12.64 248.128 12.48 247.36 12.48C246.256 12.48 245.312 12.832 244.528 13.536C243.76 14.24 243.32 15.216 243.208 16.464H251.512ZM262.534 15.624C262.534 13.992 262.902 12.528 263.638 11.232C264.374 9.92 265.374 8.896 266.638 8.16C267.918 7.424 269.334 7.056 270.886 7.056C272.71 7.056 274.302 7.496 275.662 8.376C277.022 9.256 278.014 10.504 278.638 12.12H276.022C275.558 11.112 274.886 10.336 274.006 9.792C273.142 9.248 272.102 8.976 270.886 8.976C269.718 8.976 268.67 9.248 267.742 9.792C266.814 10.336 266.086 11.112 265.558 12.12C265.03 13.112 264.766 14.28 264.766 15.624C264.766 16.952 265.03 18.12 265.558 19.128C266.086 20.12 266.814 20.888 267.742 21.432C268.67 21.976 269.718 22.248 270.886 22.248C272.102 22.248 273.142 21.984 274.006 21.456C274.886 20.912 275.558 20.136 276.022 19.128H278.638C278.014 20.728 277.022 21.968 275.662 22.848C274.302 23.712 272.71 24.144 270.886 24.144C269.334 24.144 267.918 23.784 266.638 23.064C265.374 22.328 264.374 21.312 263.638 20.016C262.902 18.72 262.534 17.256 262.534 15.624ZM294.039 16.92C294.039 17.336 294.015 17.776 293.967 18.24H283.455C283.535 19.536 283.975 20.552 284.775 21.288C285.591 22.008 286.575 22.368 287.727 22.368C288.671 22.368 289.455 22.152 290.079 21.72C290.719 21.272 291.167 20.68 291.423 19.944H293.775C293.423 21.208 292.719 22.24 291.663 23.04C290.607 23.824 289.295 24.216 287.727 24.216C286.479 24.216 285.359 23.936 284.367 23.376C283.391 22.816 282.623 22.024 282.063 21C281.503 19.96 281.223 18.76 281.223 17.4C281.223 16.04 281.495 14.848 282.039 13.824C282.583 12.8 283.343 12.016 284.319 11.472C285.311 10.912 286.447 10.632 287.727 10.632C288.975 10.632 290.079 10.904 291.039 11.448C291.999 11.992 292.735 12.744 293.247 13.704C293.775 14.648 294.039 15.72 294.039 16.92ZM291.783 16.464C291.783 15.632 291.599 14.92 291.231 14.328C290.863 13.72 290.359 13.264 289.719 12.96C289.095 12.64 288.399 12.48 287.631 12.48C286.527 12.48 285.583 12.832 284.799 13.536C284.031 14.24 283.591 15.216 283.479 16.464H291.783ZM303.479 10.608C305.079 10.608 306.375 11.096 307.367 12.072C308.359 13.032 308.855 14.424 308.855 16.248V24H306.695V16.56C306.695 15.248 306.367 14.248 305.711 13.56C305.055 12.856 304.159 12.504 303.023 12.504C301.871 12.504 300.951 12.864 300.263 13.584C299.591 14.304 299.255 15.352 299.255 16.728V24H297.071V10.848H299.255V12.72C299.687 12.048 300.271 11.528 301.007 11.16C301.759 10.792 302.583 10.608 303.479 10.608ZM315.237 12.648V20.4C315.237 21.04 315.373 21.496 315.645 21.768C315.917 22.024 316.389 22.152 317.061 22.152H318.669V24H316.701C315.485 24 314.573 23.72 313.965 23.16C313.357 22.6 313.053 21.68 313.053 20.4V12.648H311.349V10.848H313.053V7.536H315.237V10.848H318.669V12.648H315.237ZM333.465 16.92C333.465 17.336 333.441 17.776 333.393 18.24H322.881C322.961 19.536 323.401 20.552 324.201 21.288C325.017 22.008 326.001 22.368 327.153 22.368C328.097 22.368 328.881 22.152 329.505 21.72C330.145 21.272 330.593 20.68 330.849 19.944H333.201C332.849 21.208 332.145 22.24 331.089 23.04C330.033 23.824 328.721 24.216 327.153 24.216C325.905 24.216 324.785 23.936 323.793 23.376C322.817 22.816 322.049 22.024 321.489 21C320.929 19.96 320.649 18.76 320.649 17.4C320.649 16.04 320.921 14.848 321.465 13.824C322.009 12.8 322.769 12.016 323.745 11.472C324.737 10.912 325.873 10.632 327.153 10.632C328.401 10.632 329.505 10.904 330.465 11.448C331.425 11.992 332.161 12.744 332.673 13.704C333.201 14.648 333.465 15.72 333.465 16.92ZM331.209 16.464C331.209 15.632 331.025 14.92 330.657 14.328C330.289 13.72 329.785 13.264 329.145 12.96C328.521 12.64 327.825 12.48 327.057 12.48C325.953 12.48 325.009 12.832 324.225 13.536C323.457 14.24 323.017 15.216 322.905 16.464H331.209ZM338.682 12.984C339.066 12.232 339.61 11.648 340.314 11.232C341.034 10.816 341.906 10.608 342.93 10.608V12.864H342.354C339.906 12.864 338.682 14.192 338.682 16.848V24H336.498V10.848H338.682V12.984Z" fill="#9E9E9E"/>
<defs>
<clipPath id="clip0_900_3529">
<rect width="98" height="32" fill="white"/>
</clipPath>
</defs>
</svg>
