<svg width="24" height="24" viewBox="0 0 24 24" fill="none" xmlns="http://www.w3.org/2000/svg">
<path d="M12 7.80039C12 9.23256 11.431 10.6061 10.4183 11.6188C9.40563 12.6315 8.03212 13.2004 6.59995 13.2004C5.16778 13.2004 3.79427 12.6315 2.78157 11.6188C1.76888 10.6061 1.19995 9.23256 1.19995 7.80039C1.19995 6.36822 1.76888 4.99471 2.78157 3.98201C3.79427 2.96932 5.16778 2.40039 6.59995 2.40039C8.03212 2.40039 9.40563 2.96932 10.4183 3.98201C11.431 4.99471 12 6.36822 12 7.80039ZM7.19995 5.40039C7.19995 5.24126 7.13674 5.08865 7.02421 4.97613C6.91169 4.86361 6.75908 4.80039 6.59995 4.80039C6.44082 4.80039 6.28821 4.86361 6.17569 4.97613C6.06317 5.08865 5.99995 5.24126 5.99995 5.40039V7.20039H4.19995C4.04082 7.20039 3.88821 7.26361 3.77569 7.37613C3.66317 7.48865 3.59995 7.64126 3.59995 7.80039C3.59995 7.95952 3.66317 8.11213 3.77569 8.22465C3.88821 8.33718 4.04082 8.40039 4.19995 8.40039H5.99995V10.2004C5.99995 10.3595 6.06317 10.5121 6.17569 10.6247C6.28821 10.7372 6.44082 10.8004 6.59995 10.8004C6.75908 10.8004 6.91169 10.7372 7.02421 10.6247C7.13674 10.5121 7.19995 10.3595 7.19995 10.2004V8.40039H8.99995C9.15908 8.40039 9.31169 8.33718 9.42421 8.22465C9.53674 8.11213 9.59995 7.95952 9.59995 7.80039C9.59995 7.64126 9.53674 7.48865 9.42421 7.37613C9.31169 7.26361 9.15908 7.20039 8.99995 7.20039H7.19995V5.40039ZM14.4 6.00039H12.9516C12.8339 5.58596 12.6759 5.18404 12.4799 4.80039H14.4C15.0365 4.80039 15.6469 5.05325 16.097 5.50333C16.5471 5.95342 16.8 6.56387 16.8 7.20039V14.4004C16.8 15.0369 16.5471 15.6474 16.097 16.0974C15.6469 16.5475 15.0365 16.8004 14.4 16.8004H4.79995C4.16343 16.8004 3.55298 16.5475 3.10289 16.0974C2.65281 15.6474 2.39995 15.0369 2.39995 14.4004V12.892C2.76955 13.1968 3.16955 13.4596 3.59995 13.6804V14.4004C3.59995 14.7187 3.72638 15.0239 3.95142 15.2489C4.17647 15.474 4.48169 15.6004 4.79995 15.6004H14.4C14.7182 15.6004 15.0234 15.474 15.2485 15.2489C15.4735 15.0239 15.6 14.7187 15.6 14.4004V7.20039C15.6 6.88213 15.4735 6.57691 15.2485 6.35186C15.0234 6.12682 14.7182 6.00039 14.4 6.00039ZM7.19995 19.2004C6.77867 19.2004 6.36482 19.0895 5.99999 18.8788C5.63515 18.6682 5.33219 18.3652 5.12155 18.0004H14.4C15.3547 18.0004 16.2704 17.6211 16.9455 16.946C17.6207 16.2708 18 15.3552 18 14.4004V7.52199C18.3648 7.73263 18.6678 8.03559 18.8784 8.40043C19.089 8.76526 19.1999 9.17911 19.1999 9.60039V14.4004C19.1999 15.6734 18.6942 16.8943 17.7941 17.7945C16.8939 18.6947 15.673 19.2004 14.4 19.2004H7.19995ZM9.59995 21.6004C9.17867 21.6004 8.76482 21.4895 8.39998 21.2788C8.03515 21.0682 7.73219 20.7652 7.52155 20.4004H14.4C15.9912 20.4004 17.5174 19.7682 18.6426 18.643C19.7678 17.5178 20.4 15.9917 20.4 14.4004V9.92199C20.7648 10.1326 21.0678 10.4356 21.2784 10.8004C21.489 11.1653 21.5999 11.5791 21.6 12.0004V14.4004C21.6 16.3099 20.8414 18.1413 19.4911 19.4916C18.1409 20.8418 16.3095 21.6004 14.4 21.6004H9.59995Z" fill="#BCBCBC"/>
</svg>
