<svg width="25" height="25" viewBox="0 0 25 25" fill="none" xmlns="http://www.w3.org/2000/svg">
<circle cx="12.6283" cy="12.1562" r="12" fill="white"/>
<mask id="mask0_115_7074" style="mask-type:luminance" maskUnits="userSpaceOnUse" x="3" y="3" width="19" height="19">
<rect x="3.6283" y="3.15625" width="18" height="18" fill="white"/>
</mask>
<g mask="url(#mask0_115_7074)">
<path fill-rule="evenodd" clip-rule="evenodd" d="M19.9824 10.6874H19.3783V10.6562H12.6283V13.6562H16.8669C16.2485 15.4026 14.5869 16.6562 12.6283 16.6562C10.1432 16.6562 8.1283 14.6414 8.1283 12.1562C8.1283 9.67113 10.1432 7.65625 12.6283 7.65625C13.7754 7.65625 14.819 8.089 15.6137 8.79588L17.735 6.6745C16.3955 5.42612 14.6038 4.65625 12.6283 4.65625C8.48642 4.65625 5.1283 8.01438 5.1283 12.1562C5.1283 16.2981 8.48642 19.6562 12.6283 19.6562C16.7702 19.6562 20.1283 16.2981 20.1283 12.1562C20.1283 11.6534 20.0765 11.1625 19.9824 10.6874Z" fill="#FFC107"/>
<path fill-rule="evenodd" clip-rule="evenodd" d="M5.99304 8.66537L8.45717 10.4725C9.12392 8.82175 10.7387 7.65625 12.6283 7.65625C13.7754 7.65625 14.819 8.089 15.6137 8.79587L17.735 6.6745C16.3955 5.42612 14.6038 4.65625 12.6283 4.65625C9.74754 4.65625 7.24929 6.28262 5.99304 8.66537Z" fill="#FF3D00"/>
<path fill-rule="evenodd" clip-rule="evenodd" d="M12.6282 19.6565C14.5654 19.6565 16.3257 18.9151 17.6565 17.7095L15.3353 15.7453C14.5823 16.3156 13.6463 16.6565 12.6282 16.6565C10.6774 16.6565 9.02104 15.4126 8.39704 13.6768L5.95129 15.5611C7.19254 17.99 9.71329 19.6565 12.6282 19.6565Z" fill="#4CAF50"/>
<path fill-rule="evenodd" clip-rule="evenodd" d="M19.9824 10.6874H19.3783V10.6562H12.6283V13.6562H16.8669C16.5699 14.4951 16.0303 15.2185 15.3343 15.7454C15.3347 15.745 15.335 15.745 15.3354 15.7446L17.6567 17.7089C17.4924 17.8581 20.1283 15.9062 20.1283 12.1562C20.1283 11.6534 20.0765 11.1625 19.9824 10.6874Z" fill="#1976D2"/>
</g>
</svg>
