<svg width="10" height="15" viewBox="0 0 10 15" fill="none" xmlns="http://www.w3.org/2000/svg">
<path d="M1.76999 0.768397C1.81034 0.728923 1.85807 0.697787 1.91045 0.676771C1.96284 0.655754 2.01885 0.645268 2.0753 0.645914L8.08857 0.72227C8.20246 0.723734 8.3111 0.77037 8.39061 0.851923C8.47012 0.933476 8.51398 1.04327 8.51255 1.15716C8.50515 1.74026 8.20577 2.16171 7.94065 2.42018C7.83178 2.52632 7.72379 2.61 7.63431 2.67204L7.58597 6.47924C7.83588 6.63449 8.07205 6.81085 8.29187 7.0064C8.74115 7.41062 9.28386 8.06328 9.27325 8.89907C9.27179 9.01296 9.22515 9.1216 9.1436 9.20111C9.06204 9.28062 8.95225 9.32448 8.83836 9.32305L5.40229 9.28003L5.3532 13.1455C5.35019 13.3824 5.1443 14.4314 4.90741 14.4284C4.67052 14.4254 4.49073 13.3709 4.49434 13.1346L4.54342 9.26912L1.10736 9.22488C0.993469 9.22342 0.884826 9.17678 0.805318 9.09523C0.72581 9.01368 0.681948 8.90388 0.683377 8.79C0.693989 7.95421 1.2525 7.31492 1.7125 6.92285C1.93722 6.73295 2.17778 6.56264 2.43156 6.41379L2.4805 2.60721C2.37361 2.52856 2.27296 2.44178 2.17944 2.34763C1.92157 2.08313 1.63299 1.65421 1.64041 1.06989C1.642 0.956206 1.6886 0.847785 1.76999 0.768397Z" fill="#FFFBFB"/>
</svg>
