<svg width="11" height="13" viewBox="0 0 11 13" fill="none" xmlns="http://www.w3.org/2000/svg">
<path d="M4.0385 10.668C3.70172 10.668 3.41667 10.5513 3.18333 10.318C2.95 10.0846 2.83333 9.79958 2.83333 9.4628V1.87314C2.83333 1.53636 2.95 1.2513 3.18333 1.01797C3.41667 0.784635 3.70172 0.667969 4.0385 0.667969H9.62817C9.96495 0.667969 10.25 0.784635 10.4833 1.01797C10.7167 1.2513 10.8333 1.53636 10.8333 1.87314V9.4628C10.8333 9.79958 10.7167 10.0846 10.4833 10.318C10.25 10.5513 9.96495 10.668 9.62817 10.668H4.0385ZM4.0385 9.66797H9.62817C9.6795 9.66797 9.7265 9.64658 9.76917 9.6038C9.81195 9.56114 9.83334 9.51414 9.83334 9.4628V1.87314C9.83334 1.8218 9.81195 1.7748 9.76917 1.73213C9.7265 1.68936 9.6795 1.66797 9.62817 1.66797H4.0385C3.98717 1.66797 3.94017 1.68936 3.8975 1.73213C3.85472 1.7748 3.83333 1.8218 3.83333 1.87314V9.4628C3.83333 9.51414 3.85472 9.56114 3.8975 9.6038C3.94017 9.64658 3.98717 9.66797 4.0385 9.66797ZM1.70517 13.0013C1.36839 13.0013 1.08333 12.8846 0.85 12.6513C0.616667 12.418 0.5 12.1329 0.5 11.7961V3.70647C0.5 3.56458 0.547889 3.44575 0.643667 3.34997C0.739333 3.2543 0.858111 3.20647 1 3.20647C1.14189 3.20647 1.26072 3.2543 1.3565 3.34997C1.45217 3.44575 1.5 3.56458 1.5 3.70647V11.7961C1.5 11.8475 1.52139 11.8945 1.56417 11.9371C1.60683 11.9799 1.65383 12.0013 1.70517 12.0013H7.79484C7.93672 12.0013 8.05556 12.0491 8.15134 12.1448C8.247 12.2406 8.29484 12.3594 8.29484 12.5013C8.29484 12.6432 8.247 12.762 8.15134 12.8576C8.05556 12.9534 7.93672 13.0013 7.79484 13.0013H1.70517Z" fill="#BCBCBC"/>
</svg>
