<svg width="20" height="20" viewBox="0 0 20 20" fill="none" xmlns="http://www.w3.org/2000/svg">
<path d="M11.92 4.03697L14.2967 6.41363M5.83333 5.83363H3.33333C3.11232 5.83363 2.90036 5.92143 2.74408 6.07771C2.5878 6.23399 2.5 6.44595 2.5 6.66697V15.0003C2.5 15.2213 2.5878 15.4333 2.74408 15.5896C2.90036 15.7458 3.11232 15.8336 3.33333 15.8336H12.5C12.721 15.8336 12.933 15.7458 13.0893 15.5896C13.2455 15.4333 13.3333 15.2213 13.3333 15.0003V11.2503M15.3408 2.99197C15.497 3.14806 15.6208 3.33338 15.7054 3.53735C15.7899 3.74131 15.8334 3.95993 15.8334 4.18072C15.8334 4.4015 15.7899 4.62012 15.7054 4.82409C15.6208 5.02806 15.497 5.21338 15.3408 5.36947L9.6375 11.0728L6.66667 11.667L7.26083 8.69613L12.9642 2.9928C13.1201 2.83658 13.3054 2.71265 13.5093 2.62809C13.7132 2.54353 13.9318 2.5 14.1525 2.5C14.3732 2.5 14.5918 2.54353 14.7957 2.62809C14.9996 2.71265 15.1849 2.83658 15.3408 2.9928V2.99197Z" stroke="#BCBCBC" stroke-linecap="round" stroke-linejoin="round"/>
</svg>
