<svg width="14" height="14" viewBox="0 0 14 14" fill="none" xmlns="http://www.w3.org/2000/svg">
<path d="M2.04004 13.4487V10.9688H4.52004" stroke="#BCBCBC" stroke-linecap="round" stroke-linejoin="round"/>
<path d="M13.339 5.81583C13.6022 7.21978 13.3917 8.67137 12.7408 9.94282C12.0898 11.2143 11.0352 12.2336 9.74229 12.8409C8.44942 13.4482 6.99151 13.6091 5.59732 13.2983C4.20314 12.9876 2.95158 12.2227 2.03903 11.1238M0.661034 8.18583C0.397903 6.78187 0.608328 5.33029 1.25929 4.05884C1.91025 2.78739 2.96491 1.76804 4.25778 1.16074C5.55065 0.553435 7.00856 0.392544 8.40274 0.703314C9.79693 1.01408 11.0485 1.77893 11.961 2.87783" stroke="#BCBCBC" stroke-linecap="round" stroke-linejoin="round"/>
<path d="M11.96 0.552734V3.03273H9.48003M4.09003 7.33473C3.73903 7.27373 3.73903 6.76973 4.09003 6.70873C4.7113 6.60007 5.28623 6.30911 5.74172 5.87285C6.19721 5.43659 6.51268 4.87474 6.64803 4.25873L6.66903 4.16173C6.74503 3.81473 7.23903 3.81273 7.31803 4.15873L7.34403 4.27173C7.48371 4.88536 7.80177 5.44396 8.25818 5.87725C8.7146 6.31053 9.28898 6.59913 9.90903 6.70673C10.262 6.76773 10.262 7.27473 9.90903 7.33673C9.28911 7.44427 8.71482 7.73272 8.25842 8.16581C7.80202 8.59891 7.48389 9.15729 7.34403 9.77073L7.31803 9.88273C7.23903 10.2287 6.74503 10.2267 6.66903 9.87973L6.64903 9.78373C6.51354 9.16745 6.19777 8.60541 5.7419 8.16912C5.28603 7.73284 4.71067 7.44204 4.08903 7.33373" stroke="#BCBCBC" stroke-linecap="round" stroke-linejoin="round"/>
</svg>
