<svg width="24" height="24" viewBox="0 0 24 24" fill="none" xmlns="http://www.w3.org/2000/svg">
<path d="M9.7495 13.9881L12 12.6364L14.2505 13.9881L13.6403 11.4379L15.6365 9.72503L13.0232 9.50787L12 7.10981L10.9768 9.50787L8.3635 9.72503L10.3597 11.4379L9.7495 13.9881ZM5 21V4.87665C5 4.34168 5.18006 3.89535 5.54017 3.53768C5.90028 3.18 6.34867 3.00077 6.88533 3H17.1158C17.6525 3 18.1009 3.17923 18.461 3.53768C18.8211 3.89613 19.0008 4.34245 19 4.87665V21L12 18.0074L5 21ZM6.16667 19.2L12 16.7032L17.8333 19.2V4.87665C17.8333 4.69781 17.7587 4.53368 17.6093 4.38426C17.46 4.23484 17.2951 4.16052 17.1147 4.16129H6.88533C6.70567 4.16129 6.54078 4.23561 6.39067 4.38426C6.24056 4.5329 6.16589 4.69703 6.16667 4.87665V19.2Z" fill="#BCBCBC"/>
</svg>
