<svg width="16" height="17" viewBox="0 0 16 17" fill="none" xmlns="http://www.w3.org/2000/svg">
<path d="M10.1666 9.50553C10.1666 9.36387 10.2145 9.24514 10.3104 9.14937C10.4063 9.05348 10.5251 9.00553 10.6668 9.00553C10.8085 9.00553 10.9273 9.05348 11.0229 9.14937C11.1187 9.24514 11.1666 9.36387 11.1666 9.50553V11.0055H13.3333C13.4749 11.0055 13.5936 11.0535 13.6894 11.1494C13.7853 11.2453 13.8333 11.364 13.8333 11.5057C13.8333 11.6475 13.7853 11.7662 13.6894 11.8619C13.5936 11.9576 13.4749 12.0055 13.3333 12.0055H11.1666V13.5055C11.1666 13.6472 11.1186 13.7659 11.0228 13.8617C10.9269 13.9576 10.8081 14.0055 10.6664 14.0055C10.5246 14.0055 10.4059 13.9576 10.3103 13.8617C10.2145 13.7659 10.1666 13.6472 10.1666 13.5055V9.50553ZM2.16659 11.5054C2.16659 11.3636 2.21453 11.2449 2.31042 11.1492C2.4062 11.0534 2.52492 11.0055 2.66659 11.0055H7.99992C8.14159 11.0055 8.26031 11.0535 8.35609 11.1494C8.45197 11.2453 8.49992 11.364 8.49992 11.5057C8.49992 11.6475 8.45197 11.7662 8.35609 11.8619C8.26031 11.9576 8.14159 12.0055 7.99992 12.0055H2.66659C2.52492 12.0055 2.4062 11.9576 2.31042 11.8617C2.21453 11.7658 2.16659 11.647 2.16659 11.5054ZM2.16659 4.8387C2.16659 4.69692 2.21453 4.5782 2.31042 4.48253C2.4062 4.38676 2.52492 4.33887 2.66659 4.33887H4.83325V2.83887C4.83325 2.6972 4.8812 2.57848 4.97709 2.4827C5.07298 2.38681 5.19175 2.33887 5.33342 2.33887C5.4752 2.33887 5.59392 2.38681 5.68959 2.4827C5.78536 2.57848 5.83325 2.6972 5.83325 2.83887V6.83887C5.83325 6.98053 5.78531 7.09926 5.68942 7.19503C5.59353 7.29092 5.47475 7.33887 5.33309 7.33887C5.19131 7.33887 5.07259 7.29092 4.97692 7.19503C4.88114 7.09926 4.83325 6.98053 4.83325 6.83887V5.33887H2.66659C2.52492 5.33887 2.4062 5.29092 2.31042 5.19503C2.21453 5.09914 2.16659 4.98037 2.16659 4.8387ZM7.49992 4.8387C7.49992 4.69692 7.54786 4.5782 7.64375 4.48253C7.73953 4.38676 7.85825 4.33887 7.99992 4.33887H13.3333C13.4749 4.33887 13.5936 4.38681 13.6894 4.4827C13.7853 4.57859 13.8333 4.69737 13.8333 4.83903C13.8333 4.98081 13.7853 5.09953 13.6894 5.1952C13.5936 5.29098 13.4749 5.33887 13.3333 5.33887H7.99992C7.85825 5.33887 7.73953 5.29092 7.64375 5.19503C7.54786 5.09914 7.49992 4.98037 7.49992 4.8387Z" fill="#1F1F1F"/>
</svg>
